<svg xmlns="http://www.w3.org/2000/svg" width="107.464" height="30.813" viewBox="0 0 107.464 30.813">
  <g id="Group_58" data-name="Group 58" transform="translate(-2234.57 -1844.37)">
    <g id="Group_9" data-name="Group 9" transform="translate(2271.577 1856.807)">
      <path id="Path_34" data-name="Path 34" d="M381.122,3443.455l-3.809,6.036-.646-.013-3.9-6v7.486h-.857v-9.331h.725L377,3448.4l4.283-6.761h.672v9.331h-.83Z" transform="translate(-371.909 -3441.636)" fill="#f2f2f2"/>
      <path id="Path_35" data-name="Path 35" d="M494.957,3441.636H496.1l3.783,4.033,3.769-4.033h1.134l-4.521,4.837v4.494h-.817v-4.508Z" transform="translate(-482.713 -3441.636)" fill="#f2f2f2"/>
      <path id="Path_36" data-name="Path 36" d="M624.821,3450.968h-.7l-7.657-7.974-.013,7.974h-.83v-9.331h.672l7.671,7.96v-7.96h.857Z" transform="translate(-591.372 -3441.636)" fill="#f2f2f2"/>
      <path id="Path_37" data-name="Path 37" d="M729.929,3441.636h9.265v.883h-4.218v8.448h-.844l.013-8.448h-4.217Z" transform="translate(-694.305 -3441.636)" fill="#f2f2f2"/>
      <path id="Path_38" data-name="Path 38" d="M845.859,3441.636v9.331h-.83v-9.331Z" transform="translate(-797.952 -3441.636)" fill="#f2f2f2"/>
      <path id="Path_39" data-name="Path 39" d="M879.115,3450.968c-1.068,0-2.531,0-3.269-.975a1.817,1.817,0,0,1-.369-.83,3.991,3.991,0,0,1-.053-.791v-.277h.844v.343a1.926,1.926,0,0,0,.04.475c.158,1.147,1.582,1.173,2.649,1.173h1.9c1.028,0,2.359-.079,2.531-1.173a1.714,1.714,0,0,0,.04-.448v-.211a1.255,1.255,0,0,0-.949-1.331,4.309,4.309,0,0,0-.949-.158c-.343-.027-.685-.013-1-.013h-1.463c-1.081,0-2.517-.013-3.282-.975a1.715,1.715,0,0,1-.382-.883,3.824,3.824,0,0,1-.04-.672v-.2c0-2.214,1.951-2.385,3.7-2.385h1.423c1.054,0,2.544.013,3.3.962a1.95,1.95,0,0,1,.356.856,4.058,4.058,0,0,1,.053.8v.25h-.844v-.3a3.36,3.36,0,0,0-.026-.514c-.171-1.134-1.582-1.173-2.636-1.173h-1.806c-.8,0-1.977.013-2.438.646a1.582,1.582,0,0,0-.237.989v.2a1.265,1.265,0,0,0,.949,1.331,3.663,3.663,0,0,0,.949.158c.343.026.685.026,1,.026h1.45c1.068,0,2.544,0,3.282.962a1.854,1.854,0,0,1,.4.883,3.756,3.756,0,0,1,.04.659v.211c0,2.214-1.977,2.386-3.717,2.386Z" transform="translate(-825.264 -3441.636)" fill="#f2f2f2"/>
      <path id="Path_40" data-name="Path 40" d="M986.885,3441.636h9.265v.883h-4.218v8.448h-.844l.013-8.448h-4.217Z" transform="translate(-925.693 -3441.636)" fill="#f2f2f2"/>
    </g>
    <g id="Group_10" data-name="Group 10" transform="translate(2234.57 1844.37)">
      <path id="Path_41" data-name="Path 41" d="M28.331,3323.643l-.008-.013c-.026-.045-.051-.088-.078-.132h0a15.536,15.536,0,0,0-7.63-5.97l-.217-.075c-.12-.04-.242-.078-.363-.115-.061-.019-.121-.038-.183-.055-.042-.014-.084-.027-.128-.038q-.13-.038-.261-.073a15.248,15.248,0,0,0-8.375.123,7.33,7.33,0,0,1,3.511,1.472c2.944,2.281,4.271,6.121,5.013,8.811a4.769,4.769,0,0,0,4.652,3.7,4.887,4.887,0,0,0,4.737-3.55A5.147,5.147,0,0,0,28.331,3323.643Zm1.345,2.542a4.927,4.927,0,0,1-.185,1.68,5.38,5.38,0,0,1-5.228,3.92,5.183,5.183,0,0,1-3.431-1.266,5.607,5.607,0,0,1-9.181,5.61c.028.085.054.172.079.26.882,3.2,2.212,6.512,4.833,8.543a6.756,6.756,0,0,0,4.131,1.427c.167,0,.336-.006.5-.019a15.444,15.444,0,0,0,8.479-20.154Zm-10.558,1.526c-.882-3.2-2.213-6.511-4.834-8.543a6.756,6.756,0,0,0-4.131-1.427c-.19,0-.38.009-.569.026a15.447,15.447,0,0,0-8.411,20.2,4.948,4.948,0,0,1,.183-1.729,5.381,5.381,0,0,1,5.229-3.921,5.172,5.172,0,0,1,3.462,1.3,5.607,5.607,0,0,1,9.093-5.829C19.132,3327.758,19.125,3327.734,19.118,3327.711Zm-2.869,17.624c-2.943-2.281-4.27-6.12-5.013-8.81a4.77,4.77,0,0,0-4.651-3.7,4.89,4.89,0,0,0-4.738,3.55,5.155,5.155,0,0,0,.669,4.079l.008.013c.06.106.123.21.187.311a15.524,15.524,0,0,0,1.8,2.163,15.355,15.355,0,0,0,5.816,3.66.024.024,0,0,0,.015.005c.064.023.129.045.194.066s.153.05.231.074l.014.005.284.086c.018.006.037.011.055.016.04.011.079.023.119.033l.068.019c.111.031.222.06.335.088.141.034.282.069.424.1l.262.055c.033.008.068.014.1.021l.318.059c.1.018.206.034.308.05.087.014.174.027.261.037.49.065.986.108,1.484.128l.251.008c.1,0,.2,0,.305,0h.029c.1,0,.19,0,.286,0l.244-.006a15.256,15.256,0,0,0,3.838-.641A7.331,7.331,0,0,1,16.249,3345.334Z" transform="translate(0 -3316.643)" fill="#f2f2f2"/>
    </g>
  </g>
</svg>
